<svg width="20" height="15" viewBox="0 0 20 15" fill="none" xmlns="http://www.w3.org/2000/svg">
<path fill-rule="evenodd" clip-rule="evenodd" d="M2.61172 0.100342H18.0133C18.4667 0.100342 18.8591 0.256409 19.1906 0.568381C19.5216 0.880742 19.6875 1.25578 19.6875 1.69407C19.6875 2.21865 19.5164 2.72001 19.1752 3.19796C18.8333 3.67592 18.4079 4.08446 17.8987 4.423C16.2058 5.54156 14.9282 6.38603 14.0608 6.95977C13.5841 7.27489 13.2295 7.50954 13.002 7.66026C12.9682 7.68285 12.9155 7.71853 12.8455 7.76636C12.7701 7.81772 12.6747 7.88318 12.5572 7.9641C12.3305 8.1202 12.1422 8.24632 11.9922 8.3427C11.8419 8.43888 11.6607 8.54679 11.448 8.66637C11.2351 8.78598 11.0346 8.87558 10.8463 8.93531C10.658 8.995 10.4836 9.02494 10.3232 9.02494H10.3128H10.3024C10.1419 9.02494 9.96759 8.995 9.77923 8.93531C9.59091 8.87558 9.39027 8.78578 9.17755 8.66637C8.96465 8.54679 8.78317 8.43911 8.63339 8.3427C8.4834 8.24632 8.29508 8.12017 8.0684 7.9641C7.95068 7.88318 7.85526 7.81775 7.77986 7.7662L7.77262 7.76127C7.70623 7.71608 7.65598 7.68187 7.62361 7.66026C7.33153 7.46472 6.97777 7.2291 6.56757 6.95702C6.08632 6.6375 5.5263 6.26723 4.88233 5.84242C3.68941 5.05567 2.9744 4.58247 2.7373 4.423C2.3048 4.14415 1.89667 3.76079 1.51312 3.27272C1.12958 2.78446 0.937718 2.33126 0.937718 1.913C0.937718 1.39519 1.08229 0.963409 1.37192 0.618156C1.66131 0.273065 2.0744 0.100342 2.61172 0.100342ZM0.9375 4.62234C1.24439 4.94779 1.59689 5.23673 1.99439 5.48901C3.47606 6.44751 4.68294 7.23666 5.61963 7.85918L0.9375 12.3163V4.62234ZM19.1116 13.7305C18.8012 13.9921 18.436 14.1245 18.0145 14.1245H2.61293C2.19149 14.1245 1.82605 13.9921 1.51562 13.7305L6.82882 8.672C6.96172 8.76283 7.08464 8.8477 7.19548 8.92506C7.59323 9.20391 7.9157 9.42145 8.16342 9.57735C8.41091 9.73362 8.7405 9.89289 9.15217 10.0555C9.56383 10.2183 9.94738 10.2995 10.3032 10.2995H10.3136H10.3241C10.6799 10.2995 11.0634 10.2183 11.4751 10.0555C11.8865 9.89289 12.2161 9.73362 12.4638 9.57735C12.7116 9.42145 13.0342 9.20388 13.4318 8.92506C13.5485 8.84472 13.672 8.76024 13.7995 8.67336L19.1116 13.7305ZM18.6417 5.48901C17.2165 6.40726 16.0052 7.19777 15.0077 7.86096L19.688 12.3165V4.62234C19.3879 4.94125 19.0392 5.22999 18.6417 5.48901Z" fill="black"/>
</svg>
