<svg width="16" height="16" viewBox="0 0 16 16" fill="none" xmlns="http://www.w3.org/2000/svg">
<path fill-rule="evenodd" clip-rule="evenodd" d="M15.4762 12.0148L13.1597 9.69917C12.6983 9.23986 11.9342 9.25381 11.4567 9.73122L10.2897 10.8974C10.2159 10.8568 10.1396 10.8144 10.0594 10.7694C9.32237 10.3612 8.31367 9.80182 7.25222 8.74013C6.18762 7.67621 5.6274 6.66648 5.2178 5.92939C5.17457 5.8513 5.13316 5.77601 5.09226 5.70451L5.87554 4.92279L6.26063 4.53743C6.73884 4.05933 6.75203 3.29584 6.2917 2.83518L3.97518 0.519329C3.51485 0.0593199 2.75041 0.0732752 2.27219 0.551374L1.61932 1.20766L1.63716 1.22536C1.41824 1.50456 1.23531 1.82656 1.09918 2.17381C0.973686 2.50434 0.895557 2.81976 0.859832 3.13582C0.553951 5.67035 1.71275 7.98672 4.85757 11.13C9.20468 15.4746 12.7079 15.1464 12.859 15.1303C13.1882 15.091 13.5036 15.0124 13.8242 14.888C14.1686 14.7535 14.4905 14.5709 14.7697 14.3526L14.784 14.3653L15.4454 13.7179C15.9226 13.2399 15.9363 12.4762 15.4762 12.0148Z" fill="black"/>
</svg>
